<svg width="25" height="24" viewBox="0 0 25 24" fill="none" xmlns="http://www.w3.org/2000/svg">
<g clip-path="url(#clip0_8_48)">
<path d="M24.75 12C24.75 5.37188 19.3781 0 12.75 0C6.12188 0 0.75 5.37188 0.75 12C0.75 17.9902 5.13563 22.9547 10.8759 23.8552V15.4716H7.83141V12H10.8759V9.35672C10.8759 6.35156 12.6642 4.68844 15.4064 4.68844C16.7213 4.68844 18.0956 4.92516 18.0956 4.92516V7.87734H16.5834C15.0909 7.87734 14.6306 8.80453 14.6306 9.75141V12H17.9578L17.4253 15.4716H14.6306V23.8552C20.3644 22.9547 24.75 17.9902 24.75 12Z" fill="#1877F2"/>
<path d="M17.4181 15.4716L17.9511 12H14.6239V9.75141C14.6239 8.80454 15.0908 7.87735 16.5767 7.87735H18.0889V4.92516C18.0889 4.92516 16.7146 4.68845 15.3997 4.68845C12.658 4.68845 10.8692 6.35204 10.8692 9.35673V12H7.82471V15.4716H10.8692V23.8552C11.481 23.9536 12.1053 24 12.7433 24C13.3813 24 14.0056 23.9475 14.6174 23.8552V15.4716H17.4181Z" fill="white"/>
</g>
<defs>
<clipPath id="clip0_8_48">
<rect width="24" height="24" fill="white" transform="translate(0.75)"/>
</clipPath>
</defs>
</svg>
