<svg width="25" height="26" viewBox="0 0 25 26" fill="none" xmlns="http://www.w3.org/2000/svg">
<g clip-path="url(#clip0_8_41)">
<path d="M24.965 13.277C24.965 12.2521 24.8818 11.5043 24.7019 10.7287H12.9993V15.3543H19.8684C19.73 16.5038 18.9821 18.235 17.3202 19.3983L17.2969 19.5531L20.997 22.4196L21.2534 22.4452C23.6077 20.2708 24.965 17.0716 24.965 13.277Z" fill="#4285F4"/>
<path d="M12.9993 25.4643C16.3646 25.4643 19.1898 24.3563 21.2534 22.4452L17.3202 19.3983C16.2677 20.1323 14.855 20.6447 12.9993 20.6447C9.70321 20.6447 6.90569 18.4705 5.90845 15.4652L5.76228 15.4776L1.91482 18.4552L1.8645 18.595C3.91416 22.6667 8.12433 25.4643 12.9993 25.4643Z" fill="#34A853"/>
<path d="M5.90835 15.4652C5.64522 14.6896 5.49294 13.8586 5.49294 13C5.49294 12.1413 5.64522 11.3104 5.89451 10.5348L5.88754 10.3697L1.99186 7.34424L1.8644 7.40487C1.01964 9.09449 0.534912 10.9919 0.534912 13C0.534912 15.0081 1.01964 16.9054 1.8644 18.595L5.90835 15.4652Z" fill="#FBBC05"/>
<path d="M12.9993 5.3552C15.3398 5.3552 16.9186 6.36618 17.8188 7.21104L21.3365 3.77642C19.1761 1.76829 16.3646 0.535706 12.9993 0.535706C8.12433 0.535706 3.91416 3.33322 1.8645 7.40486L5.89461 10.5348C6.90569 7.52955 9.70321 5.3552 12.9993 5.3552Z" fill="#EB4335"/>
</g>
<defs>
<clipPath id="clip0_8_41">
<rect width="24.43" height="25" fill="white" transform="translate(0.534912 0.5)"/>
</clipPath>
</defs>
</svg>
